<?xml version="1.0" encoding="utf-8"?>
<!-- Generator: Adobe Illustrator 28.4.1, SVG Export Plug-In . SVG Version: 6.00 Build 0)  -->
<svg version="1.1" id="Слой_1" xmlns="http://www.w3.org/2000/svg" xmlns:xlink="http://www.w3.org/1999/xlink" x="0px" y="0px"
	 viewBox="0 0 616 384" style="enable-background:new 0 0 616 384;" xml:space="preserve">
<style type="text/css">
	.st0{fill:#FFA01C;}
	.st1{fill:none;stroke:#FFFFFF;stroke-width:25;stroke-miterlimit:10;}
	.st2{fill:#CF0067;}
	.st3{enable-background:new    ;}
	.st4{font-family:'MyriadPro-Regular';}
	.st5{font-size:24.5194px;}
	.st6{fill:#FF0080;}
	.st7{fill:#21FF00;}
	.st8{fill:#FF0080;stroke:#FF0080;stroke-width:2;stroke-linecap:round;stroke-miterlimit:10;}
	.st9{fill:none;stroke:#FF0080;stroke-width:8.5;stroke-miterlimit:10;}
	.st10{fill:#FF9400;}
	.st11{fill:#FF0073;}
</style>
<g transform="translate(12,5.5)">
	<g>
		<path class="st0" d="M-12,378.5v-384h616v384H-12z"/>
		<path class="st1" d="M407.8,199.9c0,48.7-39.2,88.3-107.8,88.3c-68,0-107.8-39.5-107.8-88.2c0-9.2-0.2-19.2,3-27.8
			c5.2-13.6,8.9-74.6,20.5-86.5c8.9-9.1,29.8,30.6,43.9,25.6c12.7-4.5,25.4-4.6,39.8-4.6c13.1,0,26.5,2.1,38,5.9
			c10.5,3.5,38.9-33.7,44.3-28.1c14.6,15.2,16.6,69.4,22.5,88.8C406.6,180.5,407.8,192.1,407.8,199.9L407.8,199.9z"/>
	</g>
</g>
<g transform="translate(104.25959,11.5)">
	<g>
		<path class="st2" d="M-104.3,372.5v-384h616v384H-104.3z"/>
		<g class="st3">
			<text transform="matrix(1.4301 0.3027 -0.4279 0.9038 355.9806 43.7741)" class="st4 st5">0V98</text>
		</g>
		<g class="st3">
			<text transform="matrix(1.4301 0.3027 -0.4279 0.9038 343.8746 69.3419)" class="st4 st5">32M2</text>
		</g>
		<path class="st6" d="M-18,105.6l-32.5-60.7L32.4,0.6l32.5,60.7L-18,105.6z"/>
		<path class="st6" d="M375.3,255.2l-40.8,55.5l-35-111.1L375.3,255.2z"/>
		<path class="st6" d="M148.7,199.8c12.8,40.6-16.4,73.4-40.8,55.5s-61.9-74.5-35-111.1S135.9,159.2,148.7,199.8z"/>
		<path class="st6" d="M0.6,370.8l-32.5-53.5l22.6-54.6l60.3,15.5L18,341.1l65.4-9.4L0.6,370.8z"/>
		<path class="st6" d="M254.5,298.2l49.9,26.6l-82.8,44.3l-32.5-60.7L254.5,298.2z"/>
		<path class="st6" d="M-101.2,129.3c-9.3-35,24.7-52.3,24.7-52.3L-47,188.1C-47,188.1-91.9,164.2-101.2,129.3L-101.2,129.3z"/>
		<path class="st6" d="M252.1,2.4c0,0-33.4,14.6-31.2,41.4S262,125,262,125l-60.3-17.6c0,0,34.5,2.7,20-24.4s-52.5-36.3-52.5-36.3
			L252.1,2.4z"/>
		<text transform="matrix(1.4301 0.3027 -0.4279 0.9038 353.5544 40.7042)" class="st7 st4 st5">0V98</text>
		<text transform="matrix(1.4301 0.3027 -0.4279 0.9038 341.4484 66.272)" class="st7 st4 st5">32M2</text>
		<text transform="matrix(1 0 0 1 -136.2692 234.2197)" class="st7 st4" style="font-size:20px;"> </text>
		<path class="st8" d="M432.5,149.3l-11.6,29l0.6-45l20.6-9l35.4,14.2l-22.5,8.4l3.9,10.3l-9.7,25.7L432.5,149.3z"/>
		<path class="st9" d="M469.8,273c14.9,20.3-86.6,75.8-22.2,78c32.9,1.1-34.5-47.2-34.5-47.2S455,252.7,469.8,273z"/>
		<g>
			<path class="st10" d="M323,113.5c-0.8,33.8,1.3,53.8,0,87.4c-3.1,2.4-10.4,0.7-13.9,2.8c-10.1-16.8-23.4-30.3-34.7-45.8
				c-4.8,16.1,0,32,1.4,48.5c-3.4,2.6-11.6,0.4-15.3,2.8c-4.2-32.7-6.2-56-8.3-87.4c4.9-1.6,8.6-4.3,15.3-4.2
				c16.3,14.2,20,41,38.8,52.7c4.8-16.4-1.2-40.6-1.4-56.9C311.5,108.6,315.9,110.4,323,113.5z"/>
			<path d="M328.6,135.7c0.1,20.8,0.1,41.6,0,62.4c-0.4,1.3-0.9,0-1.4,0c1,7.9-6.9,6.9-4.2,16.6c-7.1,1.7-17,0.6-23.6,2.8
				c-4.7-13.8-12.7-24.3-20.8-34.7c-4.9,9.4,4,16.1,1.4,27.7c-3.9-1.1-3.6,2-6.9,1.4c0.4,3.2,2.6,5.9,0,8.3
				c-3.2,1.2-8.7-0.3-11.1,1.4c-4.2,0.1-9.8,3.8-12.5,0c-7.2-48.4-3.9-70-8.3-90.2c-0.4-4.7-0.2-2.8,0-4.2c6.6-0.8,8-6.8,11.1-11.1
				c10-1.3,16.9-4.7,25-1.4c7.6,12.6,14.5,34.1,20.8,36.1c0.3-3.9-5.5-22.1-6.9-33.3c2.7-2.8,5.4,1.2,9.7-1.4
				c0.8-2.4-1.7-8.1,1.4-8.3c4.3,0.1,7.4-1,9.7-2.8c1.8-0.1,3.7-0.2,5.5,0c3.1,1.1,5.4,0,8.3,1.4c1.7,2.9,1.3,7.2,2.8,9.7
				c0.2,2-0.5,4-0.7,6.1C327.8,126.8,327.6,130.8,328.6,135.7L328.6,135.7z M305,113.5c0.2,16.3,6.2,40.5,1.4,56.9
				c-18.8-11.7-22.5-38.5-38.8-52.7c-6.6-0.1-10.4,2.6-15.3,4.2c2.1,31.4,4.1,54.7,8.3,87.4c3.7-2.4,11.9-0.1,15.3-2.8
				c-1.4-16.6-6.2-32.5-1.4-48.5c11.3,15.5,24.6,29,34.7,45.8c3.4-2.1,10.8-0.3,13.9-2.8c1.3-33.6-0.8-53.5,0-87.4
				C315.9,110.4,311.5,108.6,305,113.5L305,113.5z"/>
			<path class="st11" d="M323.1,113.4c-0.8,33.8,1.3,53.9,0,87.5c-3.1,2.4-10.4,0.7-13.9,2.8c-10.1-16.8-23.3-30.3-34.6-45.8
				c-4.8,16.1-0.1,31.9,1.3,48.5c-3.4,2.6-11.7,0.6-15.3,2.9c-4.2-32.7-6.2-56.1-8.3-87.5c4.9-1.6,8.7-4.3,15.3-4.2
				c16.3,14.2,20,41.1,38.8,52.7c4.8-16.4-1.2-40.5-1.3-56.8C311.5,108.7,316,110.3,323.1,113.4L323.1,113.4z"/>
		</g>
		<g>
			<path class="st10" d="M182.9,147.1c4.5,24.2-5.5,96.3,31.6,70.4c0.8-28.1-3.2-46.8-1.4-70.4c6.1-3.7,11.4,2,14.4,0
				c4.3,35,9.4,86.1-21.6,94.9c-18.2-0.9-24.8-13.5-34.5-23c-1.1-19.9-6.4-46.7-2.9-73.3C174.8,144.7,176.6,148.1,182.9,147.1
				L182.9,147.1z"/>
			<path d="M218.7,139.6c5.3-0.6,14.6-4.7,16,0.4c5,19.5,1.7,40.3,0,60.4c-0.9,10.3-3.2,20.9-7.9,30.2c-4.6,8.9-9.9,19-19,22.9
				c-8.3,3.6-19.1,0.7-27.5-3.3c-9.3-4.5-19.3-11.2-23.2-21c-6.6-16.6-0.7-31.1-5.7-53.2c0-8.1,0-16.3,0-24.4c3.4,0,6.7,0,10.1,0
				c3.2-1.4-3.1-7.8,1.4-10.1c8.2,0.9,20.6-3,25.9,1.4c4.2,21.7,3.5,67.2,11.5,73.3c2.2-8.6-0.6-46.4-2.9-66.1c2.7-1.4,6.7,0,10.1,0
				c0.8-2.1-0.4-5.6,1.4-7.2C211.4,140.5,215.3,140,218.7,139.6L218.7,139.6z M168.5,145.7c-3.5,26.6,1.8,53.4,2.9,73.3
				c9.7,9.5,16.3,22.1,34.5,23c30.9-8.8,25.9-59.8,21.6-94.9c-3,2-8.3-3.7-14.4,0c-1.7,23.6,2.2,42.3,1.4,70.4
				c-37.1,25.9-27.1-46.2-31.6-70.4C176.6,148.1,174.8,144.7,168.5,145.7L168.5,145.7z"/>
			<path class="st11" d="M182.9,147.2c4.5,24.2-5.6,96.2,31.6,70.3c0.8-28.1-3.2-46.7-1.4-70.3c6.1-3.7,11.5,1.9,14.4-0.1
				c4.3,35,9.4,86.2-21.6,95c-18.2-0.9-24.9-13.6-34.6-23c-1.1-19.9-6.4-46.8-2.9-73.4C174.8,144.6,176.7,148.2,182.9,147.2
				L182.9,147.2z"/>
		</g>
		<g>
			<path class="st10" d="M150.6,124.1c1.1,4.5-1.5,5.4-1.5,8.9c-14.9,5-29.8-1.9-40,3c-0.2,11.9,1.3,16.2,0,26.7
				c15-1.6,20-4.9,37.1-3c0.5,3.5,2.3,5.6,1.5,10.4c-10.1,2.1-25.3,5.1-34.1,0c-1.9,15.8,0.1,31.3,0,50.4c-4,0-7.9,0-11.9,0
				c2.7-33.6-7.4-67.4-1.5-94.9C116.2,122.7,133.9,123.1,150.6,124.1z"/>
			<path d="M150.6,116.7c1.5,0,3,0,4.4,0c0,4,0,7.9,0,11.9c-3.3,0.6-0.6,7.3-1.5,10.4c-9.5-3.1-5.3,7.6-10.4,8.9
				c-11.2-3.6-19.7,0.3-29.7,0c0,3,0,5.9,0,8.9c10.4-1.9,25.5-2.9,40-1.5c-1.3,12.1-4.4,18.4-8.9,29.7c-8.9-3.3-16.3,0.7-26.7,0
				c-2.3,19,4.5,35.7-4.4,50.4c-7.9,0-15.8,0-23.7,0c-0.5-18.2,1.7-39.3-3-53.4c0-17.8,0-35.6,0-53.4c11.8,2.9,6.6-6.5,8.9-10.4
				C107.4,120.1,136.6,121.4,150.6,116.7L150.6,116.7z M100.2,125.6c-5.9,27.5,4.1,61.3,1.5,94.9c4,0,7.9,0,11.9,0
				c0.1-19.2-1.9-34.6,0-50.4c8.8,5.1,24,2.1,34.1,0c0.9-4.8-1-6.9-1.5-10.4c-17-2-22.1,1.3-37.1,3c1.3-10.5-0.2-14.8,0-26.7
				c10.3-4.9,25.1,2,40-3c0-3.5,2.6-4.4,1.5-8.9C133.9,123.1,116.2,122.7,100.2,125.6z"/>
			<path class="st11" d="M150.6,124c1.1,4.5-1.6,5.5-1.6,9c-14.9,5-29.7-1.9-40,3c-0.2,11.9,1.2,16.1-0.1,26.6
				c15-1.6,20.2-4.9,37.2-3c0.5,3.5,2.4,5.6,1.5,10.4c-10.1,2.1-25.3,5.2-34.1,0c-1.9,15.8,0,31.2-0.1,50.3c-4,0-8,0.1-11.9,0.1
				c2.7-33.6-7.4-67.5-1.5-95C116.1,122.6,134,123,150.6,124L150.6,124z"/>
		</g>
	</g>
</g>
</svg>
